<svg width="191" height="30" viewBox="0 0 191 30" fill="none" xmlns="http://www.w3.org/2000/svg">
<path d="M19.3 9.53674e-08H7C4.7 9.53674e-08 2.9 0.8 1.6 2.3C1.54972e-06 4.3 -7.62939e-07 6.7 -7.62939e-07 7.4V13.9C-7.62939e-07 19.5 4.3 21.5 7.2 21.5H19C21.9 21.5 26.2 19.5 26.2 13.9V7.4C26.2 6.7 26.2 4.2 24.6 2.3C23.4 0.8 21.6 9.53674e-08 19.3 9.53674e-08ZM4.5 14V7.3C4.5 7.3 4.5 7.3 4.5 7.2V7.1C4.5 7.1 4.5 6.2 4.9 5.6C5.3 5.2 5.9 4.9 6.9 4.9H19.2C20.2 4.9 20.8 5.1 21.2 5.5C21.6 6 21.6 6.9 21.6 7V7.1V13.9C21.6 15 21.3 15.7 20.5 16.1C19.8 16.6 19 16.6 19 16.6H7.2C7.2 16.6 6.4 16.6 5.7 16.2C4.9 15.8 4.5 15.1 4.5 14Z" transform="translate(40.4943 7.39999)" fill="#0078A9"/>
<path d="M14.7 0H7C5.1 0 3.4 0.7 2.2 2.2C0.799997 3.9 0.199998 6.2 0.0999985 7.8C0.0999985 7.8 0.0999985 7.8 0.0999985 7.9L0 11.7V28.7C0 28.9 0.0999969 29 0.199997 29.1C0.299997 29.2 0.399998 29.3 0.599998 29.3H4.1C4.4 29.3 4.6 29 4.6 28.7V12.3H10.9C11.2 12.3 11.4 12 11.4 11.7V7.9C11.4 7.6 11.2 7.3 10.9 7.3H4.8C5 6.6 5.2 6 5.6 5.6C5.8 5.1 6.3 5 6.9 5H14.6C14.9 5 15.1 4.7 15.1 4.4V0.6C15.2 0.3 15 0 14.7 0Z" transform="translate(70.6943)" fill="#0078A9"/>
<path d="M17.5 24.1H10.8C9.6 24.1 8.9 23.7 8.4 22.9C8 22.3 7.9 21.6 7.9 21.4V12.2H24.1C24.3 12.2 24.5 12.1 24.6 11.9L25.9 9.3L26.4 8.1C26.5 7.9 26.5 7.7 26.4 7.5C26.3 7.3 26.1 7.2 26 7.2H7.9V1.3C7.9 1.2 7.9 0.7 7.6 0.3C7.4 0 6.9 0 6.7 0H3.9C3.6 0 3.4 0.3 3.4 0.6V7.3H0.500002C0.200002 7.3 1.52588e-06 7.6 1.52588e-06 7.9V11.5C1.52588e-06 11.8 0.200002 12.1 0.500002 12.1H3.4V21.5V21.6C3.5 24.2 5.2 29.1 10.8 29.1H15.5C15.7 29.1 15.9 29 16 28.8L17.9 25C18 24.8 18 24.6 17.9 24.4C17.8 24.2 17.7 24.1 17.5 24.1Z" transform="translate(86.5943)" fill="#0078A9"/>
<path d="M18.6 8.1C18.6 8.4 18.8 8.7 19.1 8.7H20.8H22.5C22.8 8.7 23 8.4 23 8.1C23 5.3 21.5 0.8 17.4 1.90735e-07H17.3H6.3C5.6 1.90735e-07 5 0.0999999 4.4 0.3C4.3 0.2 4.09999 0.1 3.99999 0.1H0.499994C0.199994 0.1 -6.10352e-06 0.4 -6.10352e-06 0.7V7.6C-6.10352e-06 7.8 -6.10352e-06 8 -6.10352e-06 8.1V21.3C-6.10352e-06 21.6 0.199994 21.9 0.499994 21.9H3.99999C4.29999 21.9 4.49999 21.6 4.49999 21.3V8.7C4.49999 8.6 4.49999 8.5 4.49999 8.5C4.49999 8.4 4.49999 8.3 4.49999 8V7.7C4.49999 6.7 4.7 5.8 5.1 5.4C5.2 5.3 5.4 5 6.3 5H16C18.4 4.9 18.6 7.4 18.6 8.1Z" transform="translate(137.594 7.29999)" fill="#0078A9"/>
<path d="M26.275 6.4C26.375 6.4 26.375 6.4 26.475 6.4C26.575 6.4 26.775 6.3 26.875 6.2C26.975 6.1 26.975 5.9 26.975 5.8C26.975 5.7 26.975 5.6 26.975 5.6V1.8C26.975 1.6 26.875 1.3 26.575 1.2L26.175 1C25.075 0.6 23.875 0.2 22.775 0C21.975 0 21.075 0 20.175 0C17.375 0 14.775 0.7 12.375 2C11.575 2.5 10.775 3 10.075 3.6C8.975 4.5 8.075 5.5 7.375 6.7C7.375 6.7 7.375 6.8 7.275 6.8L7.175 6.9C6.975 7.3 6.475 8.4 6.275 8.6L0.0749985 21.3C-0.0250015 21.5 -0.0250015 21.7 0.0749985 21.9C0.174998 22.1 0.374999 22.2 0.574998 22.2H4.575C4.775 22.2 4.975 22.1 5.075 21.9L10.375 11C10.475 10.7 10.975 9.8 11.175 9.4C11.575 8.7 12.175 8.1 12.875 7.5C13.375 7.1 13.875 6.7 14.475 6.4C16.175 5.5 18.075 5 20.175 5C20.875 5 21.475 5.1 22.075 5.2C22.975 5.3 23.775 5.6 24.575 5.9L26.275 6.4Z" transform="translate(106.719 7)" fill="url(#paint0_radial)"/>
<path d="M4.2 1.5L0.699997 3.8147e-07C0.599997 3.8147e-07 0.6 3.8147e-07 0.5 3.8147e-07C0.4 3.8147e-07 0.299997 -1.93715e-07 0.199997 0.0999998C0.0999969 0.2 0 0.400001 0 0.600001V12.5C0 12.8 0.2 13.1 0.5 13.1H4C4.3 13.1 4.5 12.8 4.5 12.5V2.1C4.6 1.8 4.4 1.6 4.2 1.5Z" transform="translate(129.194 15.6)" fill="#0078A9"/>
<path d="M29.7 8.5H14.9C14.8 8.5 14.1 8.3 14.1 6.6C14.1 5.4 14.6 5.1 14.7 5H32.9C33.2 5.1 33.3 4.9 33.7 4.1C33.9 3.7 34.1 3.3 34.4 2.8C34.8 2 35.2 1.1 35.3 0.9C35.3 0.8 35.4 0.7 35.4 0.6C35.4 0.3 35.3 1.90735e-07 35 1.90735e-07C34.9 1.90735e-07 34.8 1.90735e-07 34.7 1.90735e-07H14.6C12.8 1.90735e-07 9.5 1.4 9.5 6.8C9.5 10.8 11.5 13.4 14.8 13.4H29.6H29.7C30 13.4 30.4 13.4 30.6 13.6C30.8 13.8 30.9 14.3 30.9 15C30.9 16.6 29.7 16.7 29.4 16.7H5.2C5.1 16.7 4.9 16.8 4.8 16.9C3.4 18.4 1.9 19.7 0.1 20.6C0.1 20.8 0 21.1 0 21.3C0.1 21.6 0.3 21.8 0.5 21.8H29.6C32 21.8 35.6 20.1 35.6 15.5C35.7 10.4 32.5 8.5 29.7 8.5Z" transform="translate(0.194275 7.29999)" fill="#0078A9"/>
<path d="M29.9 8.5H15.1C15 8.5 14.3 8.3 14.3 6.6C14.3 5.4 14.8 5.1 14.9 5H33.1C33.4 5.1 33.5 4.9 33.9 4.1C34.1 3.7 34.3 3.3 34.6 2.8C35 2 35.4 1.1 35.5 0.9C35.5 0.8 35.6 0.7 35.6 0.6C35.6 0.3 35.5 1.90735e-07 35.2 1.90735e-07C35.1 1.90735e-07 35 1.90735e-07 34.9 1.90735e-07H14.8C13 1.90735e-07 9.70001 1.4 9.70001 6.8C9.70001 10.8 11.7 13.4 15 13.4H29.8H29.9C30.2 13.4 30.6 13.4 30.8 13.6C31 13.8 31.1 14.3 31.1 15C31.1 16.6 29.9 16.7 29.6 16.7H5.4C5.3 16.7 5.09999 16.8 4.99999 16.9C3.59999 18.4 2.1 19.7 0.299997 20.6C0.0999969 20.7 -6.10352e-06 21 -6.10352e-06 21.3C0.0999939 21.6 0.299994 21.8 0.499994 21.8H29.6C32 21.8 35.6 20.1 35.6 15.5C35.8 10.4 32.6 8.5 29.9 8.5Z" transform="translate(155.094 7.29999)" fill="#0078A9"/>
<defs>
<radialGradient id="paint0_radial" cx="0.5" cy="0.5" r="0.5" gradientUnits="userSpaceOnUse" gradientTransform="translate(-16.3128 -15.4136) scale(52.0953)">
<stop stop-color="#0078A9"/>
<stop offset="0.1114" stop-color="#007AAC"/>
<stop offset="0.2042" stop-color="#0182B7"/>
<stop offset="0.2902" stop-color="#018EC8"/>
<stop offset="0.3718" stop-color="#02A0E0"/>
<stop offset="0.4267" stop-color="#03AFF5"/>
<stop offset="0.4458" stop-color="#20AFDF"/>
<stop offset="0.4798" stop-color="#4EAFBD"/>
<stop offset="0.517" stop-color="#77AF9E"/>
<stop offset="0.5567" stop-color="#9BB083"/>
<stop offset="0.5996" stop-color="#B9B06D"/>
<stop offset="0.6465" stop-color="#D1B05A"/>
<stop offset="0.6993" stop-color="#E4B04C"/>
<stop offset="0.7612" stop-color="#F1B042"/>
<stop offset="0.8407" stop-color="#F9B03D"/>
<stop offset="1" stop-color="#FBB03B"/>
</radialGradient>
</defs>
</svg>
